<svg width="504" height="148" viewBox="0 0 504 148" fill="none" xmlns="http://www.w3.org/2000/svg">
<circle cx="59" cy="89" r="59" fill="#5CB53D"/>
<path d="M93 88.5C93 107.554 77.5538 123 58.5 123C39.4462 123 24 107.554 24 88.5C24 69.4462 39.4462 54 58.5 54C77.5538 54 93 69.4462 93 88.5Z" fill="#E1DF0A"/>
<rect x="46" y="49" width="49" height="25" transform="rotate(-90 46 49)" fill="#5CB53D"/>
<rect x="22" width="74" height="25" fill="#5CB53D"/>
<path d="M177.9 74.5C174 75.1 165.2 75.1 162 74.5C160.1 74.1 160 73.2 159.5 70.9C159.4 67.2 159.3 59.7 159.6 56.2C159.9 54.2 159.6 54.2 162.4 53.7C166 53.2 176 53.1 178.4 53.7C180.1 54.3 180.1 54.3 180.4 56.9C180.7 61 180.8 66.7 180.4 70.8C179.9 74.1 179.9 74.1 177.9 74.5ZM182.8 85C189.5 83.9 192.5 81.9 192.9 75.8C193 74.4 193.1 72.7 193.2 71H196.9C196.9 74.4 196.8 79.7 196.4 83.7L209.2 85.7C210.7 80.4 210.8 51.1 208.8 41.5L195.6 43.8C196.1 47.2 196.5 57.8 196.5 60.1H193.4C193.3 57.5 193.2 55 192.9 52.7C192.5 46.7 189.9 44.4 183.6 43.3C175.4 42 164.4 42.1 155.5 43.4C147.8 44.3 147.2 48.9 146.9 52.9C146.2 59.8 146.2 69 147.1 75.6C147.9 81.5 149.3 84.1 157.1 85.2C162.7 85.9 175.6 85.9 182.8 85ZM212.6 43.5C214.6 53.5 214.3 77.6 213.4 83.4L226.7 85.4C228.2 80 228.3 50.1 226.3 40.7L212.6 43.5ZM214.1 113.2C218.1 112.8 224.5 112.8 225.2 106.9C225.7 102.5 225.5 99.2 225.2 96.1C224.2 89.6 219.3 89.8 214.9 89.6C207.9 88.5 156 88.7 148.2 89.6L150.1 100.5C156.7 99.8 205.3 99.8 210.6 100.2C212.5 100.5 212.6 101.1 212.5 101.8C212.3 103.2 212.5 103.1 209.8 103.1H154C147.1 103.1 146.5 106.7 146.6 112.7C146.9 124.1 152.4 126.2 166.2 126.9C174.1 127.2 215.3 127.6 225.5 126.4L223.7 116.6C213.9 117.7 174.2 117.5 169.1 117.2C161.6 117 159.8 117.3 160.1 113.8C160.1 112.2 159.7 112.7 162.2 112.7C168.7 113.2 206.3 113.7 214.1 113.2ZM304.939 69.7C308.739 69.7 315.639 69.2 316.039 63.3C316.639 58.9 316.339 54.1 316.039 51C314.839 43.2 311.339 43.5 306.539 43C299.139 42.2 243.239 42.2 237.639 43.2L240.139 54.4C247.039 53.8 295.639 53.8 300.939 54.1C302.539 54.2 303.039 54.4 303.339 55.6C303.439 56.1 303.439 56.6 303.339 57.5C303.239 58.7 302.839 59 300.039 59L244.039 58.7C239.539 58.7 236.739 61.8 236.939 69.2C237.239 79.8 242.539 84 256.539 84.9C258.539 85 263.039 85.1 268.739 85.2V91.2C264.439 91.4 244.639 90.9 237.939 90.5L236.939 101.5C254.139 102.7 301.939 102.4 318.239 101.5L317.439 90.6C310.039 91.3 288.239 91.1 282.339 91.1C282.339 89.9 282.339 87.6 282.439 85.4C297.039 85.5 312.739 85.3 316.439 84.5L313.739 73.6C306.839 74.7 264.339 74.2 259.439 74C252.839 73.6 250.839 72.7 250.439 70.8C250.339 70.4 250.439 69.7 250.939 69.7H304.939ZM313.939 114.7C309.539 115.3 265.439 115.6 255.439 115.3C251.839 115.2 252.039 115.4 251.939 113.6C251.739 110.5 251.939 109.6 251.939 104.7L238.439 103.8C237.739 112.9 238.239 113.7 238.439 118.4C238.939 126.7 245.139 126.5 250.339 126.7C261.339 127.3 310.239 127.2 316.439 126.2L313.939 114.7ZM360.178 114.3C356.478 115.2 345.178 114.5 342.178 114.2C340.278 114 340.278 113.4 340.078 111.6C339.578 108.1 339.578 62.7 340.378 56.9C340.578 55.2 341.078 54.9 342.478 54.7C346.378 54.2 355.778 54.1 360.678 54.6C362.178 54.8 362.378 54.9 362.678 57.4C363.278 62.5 363.478 105.1 362.778 111.4C362.678 112.5 362.878 113.5 360.178 114.3ZM365.178 125.1C370.778 123.9 374.278 123.9 375.378 117C377.178 105.9 376.678 61.8 375.378 52.2C374.478 46.5 373.778 44.6 366.878 43.5C358.778 42.3 343.978 42.8 335.178 43.8C326.878 44.6 327.278 49.6 327.078 53.3C326.278 67.1 326.578 110.3 327.378 116.7C328.378 123.2 330.478 124.1 337.478 125.2C342.978 125.9 357.878 126.4 365.178 125.1ZM398.078 74.1C398.078 68.7 396.778 47.2 395.978 42.1L382.778 44.5C384.978 59.8 384.478 118.2 383.378 125.3L396.578 126.8C397.378 122.2 398.678 91.1 398.278 85.6L410.878 85.5L409.878 74L398.078 74.1ZM461.717 54.7C461.717 44.5 457.517 44.1 449.817 43.5C443.517 43.1 423.817 43.2 415.717 43.5L416.217 55.2C421.017 55.2 441.817 54.4 446.417 55.1C448.217 55.3 448.217 55.4 448.217 60.8C448.217 62.5 448.317 66.2 448.217 67.1C442.517 66.8 421.017 67.5 415.517 68L417.117 78.4C422.117 77.9 444.217 78 447.717 78.2C447.717 83.8 447.617 89.1 447.317 92.7L460.117 93C460.617 89.8 461.017 81.9 461.317 73.9H467.717C467.817 77.8 467.317 89.3 467.117 91.7L479.817 94.1C481.317 88.7 481.517 50.9 479.217 41.3L466.017 43.7C467.017 47.6 467.517 58.2 467.517 62.6L461.617 62.7C461.717 59.3 461.717 56.4 461.717 54.7ZM483.017 43.2C484.617 53.3 484.617 86.1 483.817 91.8L496.817 93.7C498.317 88.3 498.517 50.7 496.217 41.1L483.017 43.2ZM498.217 118.9C491.017 116 469.117 107.1 465.117 104.9L472.017 99.9L462.417 92.2C454.717 98.2 425.917 114.2 414.117 120.2L421.617 129C428.317 126.1 449.517 114.3 453.617 111.8C460.317 115.3 483.517 124.8 493.617 128.5L498.217 118.9Z" fill="#5CB53D"/>
</svg>
